<svg xmlns="http://www.w3.org/2000/svg" xmlns:xlink="http://www.w3.org/1999/xlink" width="872" height="872" viewBox="0 0 872 872">
  <defs>
    <clipPath id="clip-logo">
      <rect width="872" height="872"/>
    </clipPath>
  </defs>
  <g id="logo" clip-path="url(#clip-logo)">
    <g id="Group_111" data-name="Group 111" transform="translate(600.741 425.809)">
      <path id="Path_340" data-name="Path 340" d="M819.34,721.38l5.546,13.551-34.064,15.995" transform="translate(-698.879 -715.023)"/>
      <path id="Path_341" data-name="Path 341" d="M801.494,732.377l2.448,8.856-8.454,2.639-9.568-4.918,5.941-11.553Z" transform="translate(-712.076 -698.811)"/>
      <path id="Path_342" data-name="Path 342" d="M832.011,743.915l-3.888,7.551s-8.049-3.437-16.372,17.055c.159.081-34.988-17.184-34.988-17.184s5.823-13.112-7.591-23.838c.236.318,3.375-8.932,14.367-3.283S805.56,740.5,825.949,740.8C825.79,740.722,832.011,743.915,832.011,743.915Z" transform="translate(-757.169 -712.317)"/>
      <path id="Path_343" data-name="Path 343" d="M784.327,719.658l-8.821,14.708,21.954,11.29,7.826-15.22Z" transform="translate(-740.117 -719.658)"/>
      <path id="Path_344" data-name="Path 344" d="M783.349,737.569a11.642,11.642,0,1,0,15.678-5.025A11.646,11.646,0,0,0,783.349,737.569Zm6.532,3.36a4.121,4.121,0,1,1,1.78,5.546A4.111,4.111,0,0,1,789.881,740.929Z" transform="translate(-722.467 -688.447)"/>
      <path id="Path_345" data-name="Path 345" d="M766.928,729.838a9.079,9.079,0,1,0,12.226-3.921A9.08,9.08,0,0,0,766.928,729.838Zm4.966,2.559a3.491,3.491,0,1,1,1.51,4.7A3.5,3.5,0,0,1,771.895,732.4Z" transform="translate(-765.921 -705.514)"/>
    </g>
    <path id="Path_346" data-name="Path 346" d="M808.346,735.315,691.521,751.672l-2.337,10.634,3.4,6.547L830.3,794.1s9.286-12.3-6.846-15.3c-1.721-.277-5.679-4.32-5.394-19.547.3-4.641-7.447-3.736-7.447-3.736Z" transform="translate(-371.782 -251.696)"/>
    <path id="Path_347" data-name="Path 347" d="M783.479,735.946l-31.762.65L749.4,734.3l-26.592,3.3,1.754,17.151s10.091,2.016,7.016,19.37c1.385,1.437.75,7.492,7.909,6.768s8.891,9.814,8.891,9.814l35.258,1.23Zm-26.157,10.04,16.394,1.281-.86,37.1-16.161-1.562Z" transform="translate(-281.25 -254.42)"/>
    <g id="Group_112" data-name="Group 112" transform="translate(99.604 393.568)">
      <path id="Path_348" data-name="Path 348" d="M660.583,740.307a1.646,1.646,0,0,0,.609-2.226l-.2-.392a19.51,19.51,0,0,0-5.66-7.03l.044-.063a17.514,17.514,0,0,0-3.859-2.212l-2.352-.967a1.382,1.382,0,0,0-1.909.956,1.9,1.9,0,0,0,1.1,2.175l2.367.956a14.045,14.045,0,0,1,3.131,1.765l-.155.089a15.732,15.732,0,0,1,4.534,5.712l.2.391A1.649,1.649,0,0,0,660.583,740.307Z" transform="translate(-584.408 -666.837)" stroke="#fb0" stroke-miterlimit="10" stroke-width="1"/>
      <path id="Path_349" data-name="Path 349" d="M638.5,715.229a1.4,1.4,0,0,0,.661-.717,1.879,1.879,0,0,0-.809-2.289,1.4,1.4,0,0,0-2.049.642,1.873,1.873,0,0,0,.805,2.289A1.457,1.457,0,0,0,638.5,715.229Z" transform="translate(-614.122 -708.014)" stroke="#fb0" stroke-miterlimit="10" stroke-width="1"/>
      <path id="Path_350" data-name="Path 350" d="M748.07,764.032a15.7,15.7,0,0,0-8.92-7.7l-8.459-2.692-.561-1.119c.69-2.068,1.182-4.538.24-6.421l-9.833-19.651c-1.211-2.418-4.807-3.844-6.934-2.78l-5.494,2.747c-.439.225-.605.945-.923,1.3a4.607,4.607,0,0,0-5.93-1.325l-4.582,2.293c-.628.314-.979,1.086-1.381,1.628a4.808,4.808,0,0,0-6.059-1.359l-4.32,2.164a4.641,4.641,0,0,0-1.6,1.665,4.931,4.931,0,0,0-5.978-1.329l-4.316,2.16c-.373.188-1-.151-1.314.133l-3.711-1.5-2.828-11.8a2.041,2.041,0,0,0-1.13-1.381l-4.176-1.721a1.392,1.392,0,0,0-1.928.942,1.876,1.876,0,0,0,1.086,2.164l3.29,1.329,2.769,11.716c.148.631-.229,1.148.344,1.34l2.817,1.24v.048c0,.258.775.524.775.79,0,.066.417.14.421.21.007.218.233.439.266.657.011.077.126.155.141.24a6.684,6.684,0,0,0,.218.668c.019.063-.063.185-.041.251a6.766,6.766,0,0,0,.236.9l4.283,8.544-3.257,3.164c-.384.192-.764,2.1-1.141,2.1h-.008l-6.679-5.1c-.558-.262-1.314-1.211-1.732-.816l-7.9,6.916-17.945-7.514-1.917-8.167,14,5.6a1.4,1.4,0,0,0,1.507-.285l6.576-6.262a1.637,1.637,0,0,0,.414-1.573l-2.326-9.859a1.91,1.91,0,0,0-1.1-1.314l-14.009-5.671,5.365-5.092,3.238,1.311a1.4,1.4,0,0,0,1.92-.96,1.9,1.9,0,0,0-1.089-2.178l-4.106-1.658a1.4,1.4,0,0,0-1.51.255l-7.927,7.529a1.623,1.623,0,0,0-.417,1.566,1.892,1.892,0,0,0,1.093,1.311l15.748,6.373,1.876,7.935-5.3,5.029-15.744-6.376a1.4,1.4,0,0,0-1.51.258,1.637,1.637,0,0,0-.414,1.569l2.806,11.875a1.885,1.885,0,0,0,1.093,1.307l19.647,7.953a1.388,1.388,0,0,0,1.51-.255l7.783-7.389,4.15,2.175a9.879,9.879,0,0,0-.166,8.906l2.607,5.206c.019.044,2.245,4.05,4.265,8.131,4.309,8.725,4.475,8.71,5.033,9.072.162.107,2.891,1.887,14.717,9.917a1.447,1.447,0,0,0,2.134-.48,1.862,1.862,0,0,0-.631-2.338c-10.582-7.181-13.71-9.083-14.552-9.648-.971-1.765-5.45-10.527-8.193-16.01l-2.614-5.225a5.4,5.4,0,0,1,1.248-6.406c.347-.336,1.152,1.37,1.58,1.159l4.852-.779h0l9.179-7.835v-.546l2.149-.834c.329-.166.834-.646,1.215-.469.015.007.1-.225.174-.185.015.011.063-.092.081-.085.033.022.085-.011.107.011.066.048.347-.037.391.011.122.122.432.126.513.284l3.711,7.41c.081.151-.081.425-.055.594.011.063-.085.2-.085.259a1.814,1.814,0,0,1-.067.243c-.007.067.081.347.078.377-.089.4-.229.96-.561,1.126l-11.993,6c-.75.377-1.488,1.015-1.063,1.865l2.02,4.028.048.1.011.022,2.474,4.94a1.554,1.554,0,1,0,2.762-1.385l-.646-1.285c.026.052,1.038.469,1.278.354l5.948-2.98,15.611,7.038,20.57,9.386-28.634,14.326-5.007,2.507c-.746.373-.642,1.4-.218,2.249l5.206,10.405c.424.849,1.171,1.525,1.92,1.152l43.9-21.962c.75-.377,1.551-1.831,1.126-2.677l-3.6-7.193a16.047,16.047,0,0,0,3.563-6.155A15.247,15.247,0,0,0,748.07,764.032Zm-37.887-33.475,5.494-2.743c.635-.321,1.735-.7,2.1.022l9.829,19.643a5.577,5.577,0,0,1,.085,4.1,5.187,5.187,0,0,1-.775,1.318,4.2,4.2,0,0,1-1.451,1.189,4.115,4.115,0,0,1-3.419.092c-1.16-.469-3.271-1.366-3.862-2.552l-1.946-1.613v-.007c0-.033,1.1-.067,1.086-.1l.428-.281.281-.011-8.71-17.69C708.975,731.237,709.566,730.871,710.183,730.558Zm-12.129.89,4.586-2.293a2.036,2.036,0,0,1,2.555,1.145l1.474,2.943.007.015.018.03.037.074,8.828,17.649.151.3c.011.022.033.048.048.074.081.17.137.347.2.517.044.133.107.259.144.388.041.148.059.3.085.447s.074.325.089.484c.011.114,0,.229,0,.343a4.956,4.956,0,0,1,0,.576c-.007.085-.033.17-.048.255a4.808,4.808,0,0,1-.107.628c-.018.063-.048.118-.07.181a4.487,4.487,0,0,1-.24.635c-.044.085-.1.159-.151.24a4.182,4.182,0,0,1-.306.491c-.059.081-.14.14-.207.218a4.406,4.406,0,0,1-.388.4,3.952,3.952,0,0,1-.731.476,4.68,4.68,0,0,1-3.655.207,5.538,5.538,0,0,1-2.961-2.433l-.262-.521-10.242-20.474A2.565,2.565,0,0,1,698.053,731.448Zm-11.76,2.437,4.32-2.164c.96-.48,1.362-.24,1.909.849l1.617,3.231.011.022,10.25,20.489c.469.934.4,1.111-.421,1.525l-4.8,2.4c-.831.417-1.222.458-1.695-.484l-.369-.738-1.248-2.5.078.155-.214.115a4.25,4.25,0,0,0,2.108-2.943c.029-.144.037-.336.055-.484.026-.225-.292-.3-.3-.569-.011-.244-.4-.34-.4-.535v-.007c1.543-1.211.871-1.695.613-2.208l-3.718-7.418a5.844,5.844,0,0,0-1.233-1.274c-.155-.162-.45-.255-.653-.417a5.182,5.182,0,0,0-.624-.351c-.148-.085-.015.458-.136.4-1.2-.543-2.234.066-3.32.613l.214-.107-2.733-5.465C685.075,734.937,685.333,734.361,686.294,733.885Zm-.2,30.683-1.185-2.367,8.282-4.146,1.17,2.337c.052.1-.063.281-.052.392l-.158,1.635c.022.292-.237,2.319-.48,2.319h-.007c-.026,0-.044-1.709-.067-1.7l-6.425,2.352C686.8,765.572,686.3,764.981,686.09,764.568Zm-7.374-30.347c.964-.48,2.053-.986,2.6.1l4.276,8.544-8.282,4.143-4.276-8.544a2.438,2.438,0,0,1-.077-1.772c.055-.181.4.052.5-.1.174-.266.665-.07.945-.21Zm67.647,54.2L704.94,809.145,700.8,800.86l3.319-1.662,31.658-15.84c.225-.111.735.3,1.041.321.236.022.532.181.764.185a12.57,12.57,0,0,0,1.392,0c.166-.015.347.022.513,0a11.424,11.424,0,0,0,1.805-.373c.122-.033.521-.229.643-.27a4.819,4.819,0,0,0,1.521-.606Zm-3.836-9.268a8.888,8.888,0,0,1-6.7,1.307l-.048-.015a10.384,10.384,0,0,1-2.415-.809l-32.618-15.279c.155-.055.624.066.617.007l.018.2,4.7-2.189h0l-.011-.2c.258-.129.376-.6.594-.779.063-.052.063-.259.122-.31a4.138,4.138,0,0,0,.439-.561c.037-.044.067-.129.1-.173a5.059,5.059,0,0,0,.4-.665c.155.125.321.214.484.329.1.063.188.129.288.192a8.524,8.524,0,0,0,1.289.672,6.928,6.928,0,0,0,5.779-.14,6.4,6.4,0,0,0,1.038-.68c.063-.048.14-.081.2-.133a6.569,6.569,0,0,0,.569-.583c.148-.159.317-.3.45-.473s.247-.4.373-.6a7.476,7.476,0,0,0,.406-.654c.1-.2.159-.428.24-.639a7.61,7.61,0,0,0,.281-.768l.015-.044c.144.111.3.2.447.3.1.066.2.137.3.2a9.289,9.289,0,0,0,1.411.6,8.015,8.015,0,0,0,5.915-.21l-.085-.166-.115-.225-.269.137a6.542,6.542,0,0,0,1.233-.554c.092-.07.229-.044.318-.125s.207-.085.288-.17l10.106,3.448a12.207,12.207,0,0,1,7.61,14.289A9.283,9.283,0,0,1,742.528,779.152Z" transform="translate(-630.197 -710.926)" stroke="#fb0" stroke-miterlimit="10" stroke-width="1"/>
      <path id="Path_351" data-name="Path 351" d="M660.523,725.654c-2.891,1.448-3.91,5.3-2.267,8.581s5.335,4.778,8.23,3.334,3.91-5.3,2.264-8.588S663.418,724.2,660.523,725.654Zm4.423,8.839a3.248,3.248,0,1,1,1.1-4.15A3.059,3.059,0,0,1,664.946,734.493Z" transform="translate(-556.77 -672.766)" stroke="#fb0" stroke-miterlimit="10" stroke-width="1"/>
    </g>
    <g id="Group_113" data-name="Group 113" transform="translate(146.964 551.754)">
      <path id="Path_352" data-name="Path 352" d="M717.329,812.033c0,16.268-15.028,33.371-37.1,33.371-22.18,0-37.2-17.1-37.2-33.371V786.021l15.855-2.8v28.811c0,24.044,12.642,30.779,21.349,30.779,8.186,0,21.246-5.908,21.246-26.533v-6.631a29.416,29.416,0,0,1-9.641,1.244c-13.266,0-19.17-6.321-19.17-15.127,0-16.582,13.883-22.28,33.578-22.28h11.088ZM693.8,754.1l6.528,4.349,8.6-4.349,9.848,6.632-11.4,5.908-6.631-4.353-8.4,4.353-9.844-6.635Zm7.673,21.659c-6.739,1.034-13.06,6.735-13.06,19.894,0,5.808,1.968,12.746,5.8,12.957,4.143-.211,7.255-7.148,7.255-14.924Z" transform="translate(-643.024 -752.863)"/>
      <path id="Path_353" data-name="Path 353" d="M672.88,825.072c8.293-1.761,18.14-4.349,20.729-19.584a36.65,36.65,0,0,1-9.017,1.034c-12.746,0-19.171-6.838-19.171-15.545,0-17.616,13.99-29.014,33.578-29.014h11.088v24.768c0,34.508-15.858,38.755-28.4,38.755C680.239,825.486,677.234,825.386,672.88,825.072Zm21.349-60.417c-6.735,1.865-13.056,11.708-13.056,25.7,0,6.222,1.968,13.68,5.8,13.891,4.143,0,7.252-7.566,7.252-15.958Z" transform="translate(-582.721 -731.704)"/>
      <path id="Path_354" data-name="Path 354" d="M699.253,764.528l15.752-2.9v26.013a93.963,93.963,0,0,1-1.348,17.2h2.278v2.588h-2.9c-2.9,10.675-9.951,18.964-26.426,18.964-1.451,0-4.56-.1-8.393-.414h-.727c14.407-3.316,21.349-9.43,21.763-30.676Z" transform="translate(-550.227 -732.612)"/>
      <path id="Path_355" data-name="Path 355" d="M783.255,822.24H687.4v-2.588H711.13c0-29.539,0-30.262-.1-32.851l15.752-2.8v35.65h12.436V783.068l15.752-2.8v39.382H767.5V779.339l15.751-2.9Zm-42.694-59.273,6.528,4.456,8.6-4.456,9.844,6.628-11.4,5.908-6.631-4.246-8.4,4.246-9.844-6.631Zm7.566-6.842,5.594,4.457-6.425,3.833-5.387-4.457Z" transform="translate(-523.552 -747.422)"/>
      <path id="Path_356" data-name="Path 356" d="M713.109,819.275h18.964c4.663,0,4.663-3.94,4.663-10.368V759.06l15.855-2.795v52.641c0,8.4-7.462,12.956-18.344,12.956H713.109Z" transform="translate(-454.332 -747.045)"/>
      <path id="Path_357" data-name="Path 357" d="M726.777,759.06l15.752-2.795v65.6H726.777Z" transform="translate(-417.533 -747.045)"/>
      <path id="Path_358" data-name="Path 358" d="M763.7,820.5c-15.648,0-25.078-11.4-25.078-23.214,0-11.708,9.43-23.11,25.078-23.11s25.078,11.4,25.078,23.11C788.778,809.1,779.348,820.5,763.7,820.5Zm-18.137-57.826,9.844,6.631,8.5-4.353,6.632,4.353,11.4-5.908-9.848-6.628-8.6,4.349-6.528-4.349ZM763.7,817.912c5.908,0,8.5-7.359,8.5-20.625,0-13.16-2.589-20.515-8.5-20.515s-8.5,7.355-8.5,20.515C755.2,810.553,757.793,817.912,763.7,817.912Z" transform="translate(-385.643 -745.683)"/>
      <path id="Path_359" data-name="Path 359" d="M800.076,828.586h-2.071c-3.836,14.407-17.409,18.964-27.257,18.964-1.451,0-4.456-.1-8.289-.414h-.62c7.772-1.658,17.1-4.56,20.518-18.55h-8.707c-13.163,0-19.171-7.045-19.171-15.545,0-17.616,13.99-29.014,33.574-29.014h11.092v35.956a33,33,0,0,1-.624,6.015h1.554Zm-16.789-41.867c-6.735,1.865-13.056,11.708-13.056,25.7,0,6.325,1.968,13.58,5.8,13.58h6.945c.1-1.038.31-3.212.31-5.7Zm15.235-15.024H792.2c-6.011,0-9.74-6.114-9.74-10.781,0-2.588,1.348-4.867,4.246-4.867,1.554,0,2.178.827,2.178,1.137a.1.1,0,0,1-.1.107,2.143,2.143,0,0,0-2.385,2.278c0,1.447,1.451,3.109,4.77,3.109,3.415,0,5.594-1.038,5.594-3.523,0-2.906-4.147-5.387-9.844-5.387-7.772,0-12.333,3.936-12.333,8.8,0,3.009,2.072,8.19,9.947,9.124H773.754l-1.037,2.588h25.806Z" transform="translate(-342.948 -753.768)"/>
      <path id="Path_360" data-name="Path 360" d="M766.325,819.275h18.964c4.664,0,4.664-3.94,4.664-10.368V759.06l15.855-2.795v52.641c0,8.4-7.462,12.956-18.344,12.956H766.325Z" transform="translate(-311.057 -747.045)"/>
      <path id="Path_361" data-name="Path 361" d="M824.888,828.586h-2.071c-3.836,14.407-17.413,18.964-27.257,18.964-1.451,0-4.457-.1-8.289-.414h-.624c7.772-1.658,17.1-4.56,20.518-18.55h-8.7c-13.163,0-19.171-7.045-19.171-15.545,0-17.616,13.99-29.014,33.574-29.014h11.088v35.956a32.977,32.977,0,0,1-.62,6.015h1.554ZM808.1,786.718c-6.735,1.865-13.056,11.708-13.056,25.7,0,6.325,1.968,13.58,5.8,13.58h6.945c.1-1.038.31-3.212.31-5.7Zm15.234-15.024h-6.321c-6.011,0-9.74-6.114-9.74-10.781,0-2.588,1.344-4.867,4.246-4.867,1.554,0,2.178.827,2.178,1.137a.1.1,0,0,1-.1.107,2.145,2.145,0,0,0-2.385,2.278c0,1.447,1.451,3.109,4.767,3.109,3.419,0,5.6-1.038,5.6-3.523,0-2.906-4.146-5.387-9.848-5.387-7.769,0-12.332,3.936-12.332,8.8,0,3.009,2.075,8.19,9.951,9.124H798.566l-1.038,2.588h25.805Z" transform="translate(-276.146 -753.768)"/>
      <path id="Path_362" data-name="Path 362" d="M791.136,819.275H810.1c4.663,0,4.663-3.94,4.663-10.368V759.06l15.855-2.795v52.641c0,8.4-7.462,12.956-18.344,12.956H791.136Z" transform="translate(-244.258 -747.045)"/>
    </g>
    <g id="Group_114" data-name="Group 114" transform="translate(279.279 662.948)">
      <path id="Path_363" data-name="Path 363" d="M700.193,789.56v16.206H687.517a20.109,20.109,0,0,1-4.863-.484,5.067,5.067,0,0,1-2.836-1.706,5.326,5.326,0,0,1-.96-3.382,22.214,22.214,0,0,1,.31-3.345q.3-1.971.7-3.755l2.429.129-.292,2.4a31.7,31.7,0,0,0-.388,3.858,3.015,3.015,0,0,0,1.248,2.71,8.745,8.745,0,0,0,4.49.823h9.759V789.56Zm-13.813-3.149h2.758v3.149H686.38Zm4.346,0h2.725v3.149h-2.725Z" transform="translate(-678.859 -777.077)"/>
      <path id="Path_364" data-name="Path 364" d="M701.549,785.4v23.084H685.665v-2.755h4.117V789.78h3.079v15.951H698.5V785.4Z" transform="translate(-660.535 -779.796)"/>
      <path id="Path_365" data-name="Path 365" d="M701.517,787.3a31.948,31.948,0,0,1,3.161.473v13.876a18.211,18.211,0,0,1-1.281,7.6q-1.28,2.708-4.782,2.707a45.588,45.588,0,0,1-5.125-.521v-2.755a32.643,32.643,0,0,0,4.9.521,3.571,3.571,0,0,0,1.787-.392,2.519,2.519,0,0,0,1.034-1.536,11.949,11.949,0,0,0,.358-3.36h-4.442q-3.761,0-4.944-2.3a12.373,12.373,0,0,1-1.185-5.7,16.541,16.541,0,0,1,.7-5.121,4.979,4.979,0,0,1,2.2-2.806,8.394,8.394,0,0,1,4.2-.89A31.927,31.927,0,0,1,701.517,787.3Zm-6.664,12.355c.521,1.008,1.609,1.506,3.275,1.506H701.6V790.077a20.194,20.194,0,0,0-2.821-.225q-2.631,0-3.648,1.377a8.01,8.01,0,0,0-1.052,4.586A8.374,8.374,0,0,0,694.853,799.658Z" transform="translate(-646.188 -775.23)"/>
      <path id="Path_366" data-name="Path 366" d="M702.127,805.731v2.755h-6.163V785.4h3.079v20.33Z" transform="translate(-632.807 -779.796)"/>
      <path id="Path_367" data-name="Path 367" d="M717.766,805.209v2.755H697.632v-2.755h4.217a14.289,14.289,0,0,1-.746-5.184,12.766,12.766,0,0,1,.779-4.981,4.694,4.694,0,0,1,2.481-2.511,12.108,12.108,0,0,1,4.748-.746,42.724,42.724,0,0,1,4.571.225l1.134.129v13.067Zm-13.293-1.765a5.918,5.918,0,0,0,.75,1.765h6.513v-10.6c-1.34-.107-2.282-.162-2.817-.162a6.253,6.253,0,0,0-2.954.554,2.921,2.921,0,0,0-1.392,1.78,11.956,11.956,0,0,0-.391,3.471A13.309,13.309,0,0,0,704.474,803.444Zm.229-17.849h2.755v3.142H704.7Zm4.346,0h2.721v3.142h-2.721Z" transform="translate(-628.316 -779.274)"/>
      <path id="Path_368" data-name="Path 368" d="M726.04,800.952v2.755h-1.263a2.5,2.5,0,0,1-1.234-.369,3.824,3.824,0,0,1-1.1-.96v1.329H703.085v-2.755h5.254a30.939,30.939,0,0,1-.454-5.221,29.7,29.7,0,0,1,.292-4.131,32.016,32.016,0,0,1,.65-3.482,12.973,12.973,0,0,1,2.415-.654,17.766,17.766,0,0,1,3.323-.288c2.81,0,4.826.654,6.048,1.975s1.831,3.467,1.831,6.45v4.021a2.936,2.936,0,0,0,.956.96,2.554,2.554,0,0,0,1.378.369Zm-14.961-2.319q.144,1.445.307,2.319h7.975v-5.417a6.1,6.1,0,0,0-1.248-4.294,5.262,5.262,0,0,0-3.969-1.311,12.609,12.609,0,0,0-2.725.292,34.343,34.343,0,0,0-.487,5.509C710.931,796.706,710.983,797.677,711.079,798.633Z" transform="translate(-613.635 -775.017)"/>
      <path id="Path_369" data-name="Path 369" d="M716.369,785.4v23.084H709.3v-2.755h3.988V785.4Z" transform="translate(-596.896 -779.796)"/>
      <path id="Path_370" data-name="Path 370" d="M712.744,785.4h3.079v23.084h-3.079Z" transform="translate(-587.629 -779.796)"/>
      <path id="Path_371" data-name="Path 371" d="M738.108,789.56v16.206H725.432a20.089,20.089,0,0,1-4.863-.484,5.09,5.09,0,0,1-2.84-1.706,5.328,5.328,0,0,1-.956-3.382,22.637,22.637,0,0,1,.307-3.345q.31-1.971.7-3.755l2.433.129-.292,2.4a31.971,31.971,0,0,0-.391,3.858,3.009,3.009,0,0,0,1.252,2.71,8.734,8.734,0,0,0,4.49.823h9.759V789.56ZM724.3,786.411h2.758v3.149H724.3Zm4.346,0h2.725v3.149h-2.725Z" transform="translate(-576.779 -777.077)"/>
      <path id="Path_372" data-name="Path 372" d="M723.992,785.4h3.079v23.084h-3.079Z" transform="translate(-557.346 -779.796)"/>
      <path id="Path_373" data-name="Path 373" d="M742.694,801.237v2.755H725.968v-2.755h10.5v-2.98q0-4.6-1.783-6.5a5.563,5.563,0,0,0-4.183-1.9h-2.821l-.225-2.3a11.744,11.744,0,0,1,1.588-.325,14.979,14.979,0,0,1,2.075-.159,8.184,8.184,0,0,1,4.231,1.119,7.75,7.75,0,0,1,3.031,3.585,15.142,15.142,0,0,1,1.134,6.321v3.142Z" transform="translate(-552.026 -775.302)"/>
      <path id="Path_374" data-name="Path 374" d="M750.891,800.979v2.755h-3.663a14.357,14.357,0,0,1-3.257-.388,15.966,15.966,0,0,1-3.127-1.067,14.611,14.611,0,0,1-3.05,1.067,14.021,14.021,0,0,1-3.208.388H730.5v-2.755h3.991a10.16,10.16,0,0,0,3.4-.617,15.914,15.914,0,0,1-3.777-4.2,8.89,8.89,0,0,1-1.477-4.228l-.1-2.467a20.1,20.1,0,0,1,4.069-1.687,15.168,15.168,0,0,1,4.2-.617,15.515,15.515,0,0,1,4.228.617,20.655,20.655,0,0,1,4.135,1.687l-.129,2.467a8.921,8.921,0,0,1-1.473,4.228,15.815,15.815,0,0,1-3.81,4.2,10.423,10.423,0,0,0,3.434.617Zm-13.857-5.6a12.111,12.111,0,0,0,3.81,3.626,12.636,12.636,0,0,0,3.858-3.644,7.719,7.719,0,0,0,1.392-4.331,15.948,15.948,0,0,0-5.25-1.067,15.586,15.586,0,0,0-5.188,1.067A7.852,7.852,0,0,0,737.033,795.374Z" transform="translate(-539.83 -775.044)"/>
      <path id="Path_375" data-name="Path 375" d="M753.548,789.151q1.828,1.977,1.831,6.45v8.1H736.021v-2.755h5.254a30.939,30.939,0,0,1-.454-5.221,30.3,30.3,0,0,1,.292-4.131,31.957,31.957,0,0,1,.65-3.482,12.977,12.977,0,0,1,2.415-.654,17.768,17.768,0,0,1,3.323-.288C750.31,787.176,752.326,787.83,753.548,789.151Zm-9.534,9.482q.144,1.445.31,2.319H752.3v-5.417a6.1,6.1,0,0,0-1.252-4.294,5.261,5.261,0,0,0-3.969-1.311,12.606,12.606,0,0,0-2.725.292,34.318,34.318,0,0,0-.487,5.509C743.867,796.706,743.919,797.677,744.015,798.633Z" transform="translate(-524.96 -775.017)"/>
      <path id="Path_376" data-name="Path 376" d="M756.263,803.448h-4.475v.2a10.685,10.685,0,0,1-1.329,5.852,4.482,4.482,0,0,1-4.021,2.027,15.268,15.268,0,0,1-1.621-.1l-.779-.066V808.64c.713.063,1.3.1,1.75.1a2.449,2.449,0,0,0,2.2-1.167,6.049,6.049,0,0,0,.746-3.275V787.272h3.05v13.422h4.475Z" transform="translate(-503.376 -774.759)"/>
      <path id="Path_377" data-name="Path 377" d="M760.088,800.715v2.755H747.349v-2.755h4.829V787.264h3.08v13.451Zm-9.951,5.347h2.754v3.116h-2.754Zm4.342,0H757.2v3.116h-2.725Z" transform="translate(-494.461 -774.78)"/>
      <path id="Path_378" data-name="Path 378" d="M765.166,788.424q1.457,1.246,1.455,4.228v11.055H750.8v-2.755h12.775v-7.975q0-3.113-3.179-3.113-1.423,0-6.709.521l-.1-2.175q1.75-.415,3.936-.727a26.713,26.713,0,0,1,3.619-.306A5.985,5.985,0,0,1,765.166,788.424Zm-6.55,17.875h2.95v3.183h-2.95Z" transform="translate(-485.173 -775.017)"/>
      <path id="Path_379" data-name="Path 379" d="M762.9,789.588l-6.779,1.329-.325-1.167,1.558-.421a2.933,2.933,0,0,1-.875-1.085,3.1,3.1,0,0,1-.292-1.314,2.973,2.973,0,0,1,.875-2.138,3.009,3.009,0,0,1,2.267-.908,4.262,4.262,0,0,1,2.4.779l-.354,1.455a2.69,2.69,0,0,0-.583-.325,2.181,2.181,0,0,0-.846-.162,1.809,1.809,0,0,0-1.846,1.82,1.788,1.788,0,0,0,.779,1.492l3.63-.975Zm1.2,20.23v2.755h-6.159v-20.3h3.079v17.542Z" transform="translate(-471.722 -783.883)"/>
      <path id="Path_380" data-name="Path 380" d="M770.785,805.209v2.755H758.043v-2.755h4.833V791.757h3.079v13.451Zm-9.921-19.614h2.758v3.142h-2.758Zm4.346,0h2.721v3.142H765.21Z" transform="translate(-465.67 -779.274)"/>
      <path id="Path_381" data-name="Path 381" d="M768.561,785.4v23.084h-7.067v-2.755h3.988V785.4Z" transform="translate(-456.378 -779.796)"/>
    </g>
    <g id="Group_115" data-name="Group 115" transform="translate(139.491 685.534)">
      <rect id="Rectangle_127" data-name="Rectangle 127" width="107.078" height="11.077"/>
    </g>
    <g id="Group_116" data-name="Group 116" transform="translate(619.494 685.534)">
      <rect id="Rectangle_128" data-name="Rectangle 128" width="107.078" height="11.077"/>
    </g>
    <g id="Group_117" data-name="Group 117" transform="translate(217.03 110)">
      <path id="Path_382" data-name="Path 382" d="M662,945.478c29.539-13.506,70.154-26.367,114.462-33.98V654.135L662,705.669ZM728.462,720.1h25.846v25.846H728.462Zm0,40.616h25.846V786.56H728.462Zm0,44.308h25.846v25.846H728.462Zm0,40.615h25.846v29.539H728.462ZM684.154,720.1h29.539v25.846H684.154Zm0,40.616h29.539V786.56H684.154Zm0,44.308h29.539v25.846H684.154Zm0,40.615h29.539v29.539H684.154Z" transform="translate(-662 -580.259)"/>
      <path id="Path_383" data-name="Path 383" d="M736,660.649v231.2c33.231,4.63,66.462,12.812,103.385,25.488V708.018Zm44.308,200.682H754.462V831.792h25.846Zm0-40.616H754.462V794.869h25.846Zm0-40.615H754.462V757.946h25.846Zm0-36.923H754.462V717.33h25.846Zm40.615,118.154H795.077V831.792h25.846Zm0-40.616H791.385V794.869h29.539Zm0-40.615H791.385V757.946h29.539Zm0-36.923H791.385V717.33h29.539Z" transform="translate(-462.768 -562.721)"/>
      <path id="Path_384" data-name="Path 384" d="M699,962.2a534.581,534.581,0,0,1,118.154-1.189V634.127L699,698.477ZM765.462,748.12H795v33.231H765.462Zm0,48H795v33.231H765.462Zm0,51.693H795v33.231H765.462Zm0,48H795v33.231H765.462ZM721.154,748.12h29.539v33.231H721.154Zm0,48h29.539v33.231H721.154Zm0,51.693h29.539v33.231H721.154Zm0,48h29.539v33.231H721.154Z" transform="translate(-562.384 -634.127)"/>
    </g>
    <g id="Group_118" data-name="Group 118" transform="translate(127.853 426.942)">
      <path id="Path_385" data-name="Path 385" d="M637.848,821s1.861-1.68,5.483-4.711c3.663-2.98,9.061-7.337,16.258-12.447,3.581-2.585,7.676-5.247,12.07-8.264s9.4-5.856,14.633-9.12c10.593-6.277,22.774-13.034,36.513-19.514q2.559-1.257,5.173-2.537,2.7-1.179,5.45-2.378,5.394-2.321,10.992-4.737c7.348-3.378,15.419-6.133,23.679-9.083q6.192-2.21,12.55-4.486,6.441-1.9,13.038-3.855c8.81-2.529,17.76-5.369,27.135-7.137q6.99-1.512,14.094-3.042l7.126-1.536c1.259-.247,2.241-.536,3.729-.75l3.582-.572q7.178-1.141,14.433-2.3l1.817-.288.908-.136,1.252-.133,3.666-.377,7.359-.746q7.378-.747,14.8-1.5,7.6-.371,15.253-.739c5.1-.21,10.217-.543,15.319-.642l15.268.151c5.088.122,10.187.085,15.26.377q7.6.587,15.19,1.163c5.11.413,9.973.716,15.253,1.222q7.4.93,14.762,1.85l1.839.229.919.118,1.185.185,3.644.609,7.266,1.207q7.234,1.279,14.4,2.544c9.615,2.208,19.178,4.2,28.438,6.513,9.157,2.6,18.24,4.874,26.972,7.621q13,4.4,25.4,8.6c16.316,6.583,31.363,12.03,45.113,18.964q10.307,4.874,19.714,9.331c6.1,3.234,11.8,6.454,17.2,9.4q8.064,4.459,15.057,8.323c4.615,2.629,8.662,5.387,12.414,7.695,7.414,4.748,13.244,8.481,17.214,11.025l6.07,3.914s-2.252-1.123-6.476-3.223-10.379-5.206-18.233-9.146c-3.936-1.946-8.175-4.3-12.993-6.484s-10.017-4.53-15.582-7.045-11.431-5.254-17.686-7.99q-9.482-3.783-19.905-7.946-5.184-2.077-10.583-4.243c-3.578-1.466-7.455-2.6-11.269-3.951q-11.437-3.96-23.613-8.182-12.312-3.583-25.256-7.351-13.037-3.268-26.607-6.661c-9.053-2.012-18.288-3.678-27.6-5.583q-7.183-1.08-14.444-2.167l-7.274-1.145-3.652-.576-.458-.067-.229-.037c-.318-.048.185.022.048,0l-.919-.107-1.839-.214q-7.366-.858-14.78-1.721-7.278-.515-14.592-1.026-7.377-.5-14.784-1.012c-4.937-.247-9.892-.14-14.836-.251l-14.839-.277c-4.926.052-9.811.336-14.707.487q-7.344.283-14.651.569l-14.813,1.377-7.37.683-3.666.34-.462.044-.229.022c.074-.011-.487.055.107-.022l-.908.129-1.824.247q-7.283.963-14.485,1.927l-3.6.477c-.908.089-2.263.406-3.375.6q-3.5.659-6.971,1.318-6.957,1.318-13.806,2.607c-9.2,1.447-17.956,4.124-26.677,6.155q-6.519,1.623-12.89,3.212-6.242,1.933-12.325,3.822t-12.015,3.722c-3.958,1.145-7.8,2.821-11.631,4.124q-5.727,2.077-11.254,4.076l-5.354,1.96q-2.637,1.108-5.218,2.186c-13.831,5.649-26.311,11.354-37.233,16.73-10.87,5.468-20.223,10.52-27.81,14.906-3.766,2.245-7.126,4.25-10.051,6-2.88,1.82-5.328,3.375-7.318,4.63C639.893,819.529,637.848,821,637.848,821Z" transform="translate(-637.848 -719.965)"/>
      <path id="Path_386" data-name="Path 386" d="M1243.158,827.282l-6.469-3.223-18.251-9.164c-3.936-1.946-8.2-4.324-13.023-6.506s-10.01-4.527-15.567-7.041-11.406-5.247-17.653-7.972q-9.515-3.8-19.968-7.976-5.206-2.088-10.626-4.264c-3.6-1.469-7.418-2.585-11.217-3.925q-11.354-3.932-23.435-8.12-12.428-3.628-25.5-7.433l-26.5-6.624c-9.057-2.012-18.384-3.7-27.751-5.6q-7.095-1.069-14.271-2.145c-4.756-.664-9.626-1.621-14.334-2.13l-14.78-1.713q-7.272-.515-14.581-1.034-7.482-.51-14.987-1.019c-4.977-.248-9.84-.144-14.769-.24l-14.725-.266c-4.926.055-9.87.34-14.791.5l-14.747.576q-7.328.676-14.6,1.355c-4.793.5-9.811.779-14.367,1.459q-7.283.974-14.489,1.931l-3.593.476-.451.063-.222.03c-.4.066.292-.059.141-.03l-.886.17-1.776.336q-3.55.664-7.071,1.333-7.044,1.329-13.986,2.64c-9.4,1.481-17.971,4.143-26.659,6.163q-6.48,1.612-12.816,3.187-6.27,1.95-12.384,3.844t-12.066,3.74c-3.991,1.156-7.735,2.806-11.546,4.1l-11.154,4.04q-2.692.98-5.332,1.946-2.658,1.113-5.265,2.208c-14.02,5.727-26.356,11.372-37.274,16.737-10.874,5.468-20.223,10.523-27.818,14.9-3.762,2.249-7.122,4.257-10.047,6-2.88,1.82-5.335,3.371-7.322,4.63-3.918,2.6-5.959,4.073-5.959,4.073s1.861-1.684,5.483-4.719c3.659-2.976,9.057-7.333,16.25-12.451,3.585-2.581,7.673-5.25,12.07-8.263s9.4-5.856,14.632-9.127,11.088-6.284,17.125-9.725c3.021-1.758,6.181-3.338,9.423-4.9q4.852-2.382,9.925-4.878,2.537-1.246,5.125-2.518l5.468-2.382q5.45-2.354,11.1-4.785c7.473-3.415,15.493-6.159,23.712-9.09q6.159-2.2,12.487-4.468,6.48-1.916,13.112-3.877c8.847-2.544,17.978-5.394,27.157-7.13q6.9-1.49,13.909-3.006,3.506-.759,7.034-1.518l1.765-.384.886-.188,1.259-.211,3.581-.572,14.43-2.3c5.132-.805,9.958-1.093,14.987-1.665L894.2,727.6q7.554-.36,15.157-.727c5.073-.2,10.135-.535,15.234-.639l15.379.163c5.11.14,10.294.1,15.331.4q7.5.571,14.983,1.148l7.47.576,3.729.284,1.865.144.931.07,1.274.148q7.411.93,14.766,1.846c10.051,1.41,19.724,3.227,29.409,4.937,9.567,2.2,19.034,4.169,28.291,6.48,9.2,2.6,18.369,4.925,27.076,7.665q12.877,4.359,25.156,8.518,12.19,4.852,23.683,9.423c3.766,1.588,7.558,2.947,11.121,4.652q5.35,2.526,10.5,4.952,10.274,4.862,19.651,9.3c6.111,3.238,11.83,6.465,17.232,9.411q8.069,4.453,15.072,8.323c4.615,2.625,8.633,5.376,12.384,7.68l17.2,11.007C1241.046,825.916,1243.158,827.282,1243.158,827.282Z" transform="translate(-636.723 -703.087)"/>
    </g>
  </g>
</svg>
